<?xml version="1.0" standalone="no"?>
<!DOCTYPE svg PUBLIC "-//W3C//DTD SVG 1.1//EN" "http://www.w3.org/Graphics/SVG/1.1/DTD/svg11.dtd">
<svg version="1.1" xmlns="http://www.w3.org/2000/svg" viewBox="0 0 40 40" width="120" height="120"><!-- svg-source:excalidraw --><metadata></metadata><defs><style class="style-fonts">
      </style></defs><g stroke-linecap="round" transform="translate(10 10) rotate(0 10 10)"><path d="M9.31 -0.03 C11.18 -0.31, 13.68 0.62, 15.48 1.95 C17.28 3.28, 19.48 5.88, 20.09 7.94 C20.7 10, 20.1 12.37, 19.12 14.3 C18.14 16.24, 16.17 18.68, 14.21 19.54 C12.25 20.4, 9.45 20.07, 7.35 19.46 C5.26 18.85, 2.93 17.56, 1.63 15.86 C0.33 14.16, -0.63 11.46, -0.43 9.27 C-0.24 7.07, 1.06 4.27, 2.79 2.71 C4.53 1.15, 8.7 0.38, 9.95 -0.09 C11.21 -0.55, 10.32 -0.27, 10.33 -0.06 M11.59 0.59 C13.67 0.88, 16.15 1.88, 17.64 3.53 C19.13 5.17, 20.56 8.22, 20.53 10.46 C20.5 12.7, 19.03 15.26, 17.47 16.94 C15.9 18.63, 13.1 20.2, 11.15 20.55 C9.19 20.89, 7.5 20.13, 5.73 19.01 C3.97 17.88, 1.49 15.87, 0.55 13.79 C-0.39 11.72, -0.66 8.73, 0.09 6.58 C0.84 4.43, 3.09 1.93, 5.03 0.89 C6.97 -0.14, 10.7 0.57, 11.71 0.38 C12.71 0.19, 11.18 -0.5, 11.07 -0.26" stroke="none" stroke-width="0" fill="#ffc9c9"></path><path d="M8.55 0.36 C10.49 0, 13.74 0.71, 15.5 1.86 C17.26 3.02, 18.57 5.28, 19.12 7.28 C19.67 9.27, 19.5 11.8, 18.8 13.82 C18.1 15.84, 16.79 18.41, 14.93 19.38 C13.08 20.35, 9.87 20.23, 7.68 19.64 C5.48 19.05, 3.07 17.52, 1.77 15.86 C0.48 14.2, -0.18 11.83, -0.09 9.68 C0 7.53, 0.68 4.59, 2.31 2.97 C3.93 1.36, 8.32 0.42, 9.65 0.02 C10.99 -0.38, 10.32 0.33, 10.31 0.57 M12.46 0.88 C14.39 1.25, 16.59 2.12, 17.96 3.63 C19.33 5.13, 20.7 7.77, 20.7 9.9 C20.69 12.03, 19.41 14.79, 17.93 16.39 C16.44 17.99, 14.16 19.23, 11.81 19.49 C9.47 19.76, 5.74 19, 3.84 18 C1.94 16.99, 0.98 15.35, 0.42 13.46 C-0.14 11.56, -0.46 8.79, 0.46 6.64 C1.38 4.5, 3.93 1.64, 5.93 0.6 C7.92 -0.44, 11.25 0.37, 12.44 0.39 C13.63 0.41, 13.03 0.52, 13.05 0.72" stroke="#f783ac" stroke-width="2" fill="none"></path></g></svg>