<?xml version="1.0" standalone="no"?>
<!DOCTYPE svg PUBLIC "-//W3C//DTD SVG 1.1//EN" "http://www.w3.org/Graphics/SVG/1.1/DTD/svg11.dtd">
<svg version="1.1" xmlns="http://www.w3.org/2000/svg" viewBox="0 0 608.1258043593466 782.2715036327888" width="1824.3774130780398" height="2346.8145108983663"><!-- svg-source:excalidraw --><metadata></metadata><defs><style class="style-fonts">
      </style></defs><g stroke-linecap="round" transform="translate(251 -0.7284963672111076) rotate(21.80140948635181 180 150)"><path d="M16.1 139.87 C16.1 139.87, 16.1 139.87, 16.1 139.87 M16.1 139.87 C16.1 139.87, 16.1 139.87, 16.1 139.87 M12.95 155.68 C29.32 142.47, 38.41 121.01, 58.22 103.61 M12.95 155.68 C26.28 137.66, 43.7 121.4, 58.22 103.61 M17.68 162.44 C38.24 144.29, 51.59 126.22, 95.09 73.39 M17.68 162.44 C40.16 136.21, 61.79 110.8, 95.09 73.39 M23.06 168.45 C64.52 121.46, 100.2 77.21, 131.96 43.16 M23.06 168.45 C57.12 128.09, 91.25 88.36, 131.96 43.16 M28.44 174.45 C63.03 134.2, 97.86 98.19, 168.18 13.7 M28.44 174.45 C67.39 131.92, 103.52 92.08, 168.18 13.7 M34.48 179.7 C70 139.96, 103.06 98.98, 182.09 9.89 M34.48 179.7 C71.48 132.41, 109.34 90.46, 182.09 9.89 M40.52 184.95 C89.26 130.78, 135.2 80.49, 190.75 12.12 M40.52 184.95 C75.57 143.73, 111.23 99.41, 190.75 12.12 M47.21 189.44 C98.93 126.9, 158.36 63.8, 197.45 16.61 M47.21 189.44 C81.14 150.34, 114.22 110.71, 197.45 16.61 M53.25 194.69 C96 146.1, 143.72 94.36, 203.48 21.86 M53.25 194.69 C92.59 147.39, 134.53 98.32, 203.48 21.86 M59.28 199.94 C92.47 164.63, 129.24 128.33, 210.18 26.35 M59.28 199.94 C111.15 138.08, 164.06 77.79, 210.18 26.35 M65.32 205.18 C120.31 145.77, 169.34 85.18, 216.87 30.85 M65.32 205.18 C123.72 141.49, 178.44 76.1, 216.87 30.85 M72.02 209.68 C127.29 147.05, 174.16 86.74, 223.57 35.34 M72.02 209.68 C119.5 153.62, 171.31 94.96, 223.57 35.34 M78.05 214.93 C130.94 155.38, 189.64 87.29, 229.6 40.59 M78.05 214.93 C117.7 168.54, 155.01 124.4, 229.6 40.59 M84.09 220.18 C136.81 165.66, 187.46 106.04, 235.64 45.84 M84.09 220.18 C136.89 164.69, 187.39 105.17, 235.64 45.84 M90.13 225.42 C135.47 169.88, 185.61 115.79, 241.68 51.09 M90.13 225.42 C143.02 164.21, 194.18 101.92, 241.68 51.09 M96.82 229.92 C156.68 157.75, 217.7 92.63, 247.72 56.33 M96.82 229.92 C144.06 177.35, 189.19 122.7, 247.72 56.33 M102.86 235.17 C139.38 184.71, 179.07 142.28, 253.75 61.58 M102.86 235.17 C148.47 179.29, 195.45 129.08, 253.75 61.58 M108.9 240.41 C146.48 194.48, 184.58 150.78, 259.79 66.83 M108.9 240.41 C151.32 197.46, 190.48 149.27, 259.79 66.83 M114.94 245.66 C144.86 207.14, 176.69 169.85, 265.83 72.08 M114.94 245.66 C150.69 201.67, 190.13 159.14, 265.83 72.08 M120.97 250.91 C159.68 211.63, 193.59 171.13, 271.87 77.33 M120.97 250.91 C154.47 214.17, 188.4 176.06, 271.87 77.33 M127.67 255.41 C156.42 221.17, 182.72 188.76, 278.56 81.82 M127.67 255.41 C167.86 210.98, 204.71 169.08, 278.56 81.82 M133.7 260.65 C180.02 203.86, 230.53 146.3, 284.6 87.07 M133.7 260.65 C161.01 223.93, 192.01 189.44, 284.6 87.07 M139.74 265.9 C179.03 221.13, 216.9 178.88, 290.64 92.32 M139.74 265.9 C187.76 209.71, 241.62 151.85, 290.64 92.32 M145.78 271.15 C200.1 202.11, 261.83 137.9, 296.67 97.57 M145.78 271.15 C186.77 222.12, 230.88 173.35, 296.67 97.57 M152.47 275.64 C183.45 241.32, 216.7 204.67, 302.71 102.82 M152.47 275.64 C201.35 219.3, 250.05 161.67, 302.71 102.82 M159.17 280.14 C206.71 228.67, 251.14 180.09, 308.75 108.06 M159.17 280.14 C210.59 219.3, 266.95 157.1, 308.75 108.06 M165.2 285.39 C217.33 229.02, 258.18 180.66, 314.79 113.31 M165.2 285.39 C193.56 249.88, 227.03 216.45, 314.79 113.31 M173.21 288.37 C210.29 246.96, 239.13 210.35, 320.82 118.56 M173.21 288.37 C223.17 231.66, 273.36 176.74, 320.82 118.56 M182.53 289.85 C242.67 225.55, 299.61 162.62, 326.86 123.81 M182.53 289.85 C231.67 234.35, 280.48 180.51, 326.86 123.81 M199.06 283.02 C245.56 233.26, 288.71 179.63, 332.9 129.06 M199.06 283.02 C244.42 226.13, 288.34 174.15, 332.9 129.06 M230.69 258.83 C260.83 223.82, 289.19 195.7, 338.94 134.31 M230.69 258.83 C262.1 228.31, 289.73 193.37, 338.94 134.31 M268.87 227.1 C291.2 200.76, 315.68 174.79, 344.32 140.31 M268.87 227.1 C291.97 196.91, 320.47 170.18, 344.32 140.31 M307.06 195.37 C324.18 176.6, 340.37 163.02, 347.08 149.33 M307.06 195.37 C318.84 181.34, 329.73 169.14, 347.08 149.33 M30.74 176.51 C30.74 176.51, 30.74 176.51, 30.74 176.51 M30.74 176.51 C30.74 176.51, 30.74 176.51, 30.74 176.51 M170.33 287.25 C114.14 233.25, 55.85 185.48, 12.59 150.13 M170.33 287.25 C127.4 253.46, 88.59 218.37, 12.59 150.13 M183.88 288.43 C144.57 258.09, 107.5 222.45, 14.82 141.47 M183.88 288.43 C124.05 235.2, 66.3 186.48, 14.82 141.47 M193.65 286.33 C143.87 239.78, 92.89 199.67, 20.07 135.43 M193.65 286.33 C133.9 239.37, 76.74 187.38, 20.07 135.43 M200.41 281.6 C158.01 245.02, 109.37 205.88, 26.07 130.05 M200.41 281.6 C150.38 239.01, 103.7 196.85, 26.07 130.05 M207.17 276.88 C145.37 225.14, 92.17 176.97, 32.08 124.67 M207.17 276.88 C153.11 228.31, 98.38 183.27, 32.08 124.67 M213.93 272.15 C155.86 223.86, 96.28 171.56, 38.08 119.29 M213.93 272.15 C176.8 241.19, 137.18 205.12, 38.08 119.29 M219.93 266.77 C157.2 211.16, 99.24 158.48, 44.08 113.91 M219.93 266.77 C176.35 228.64, 130.15 192.61, 44.08 113.91 M226.69 262.04 C165.84 211.99, 111.97 160.76, 50.84 109.18 M226.69 262.04 C155.37 204.88, 88 142.5, 50.84 109.18 M232.69 256.66 C166.51 202.74, 97.95 139.99, 56.84 103.8 M232.69 256.66 C173.88 202.71, 111.73 148.29, 56.84 103.8 M238.69 251.28 C180.62 209.8, 131.01 158.52, 62.85 98.42 M238.69 251.28 C164.71 186.13, 97.29 127.86, 62.85 98.42 M245.45 246.55 C193.97 204.35, 143.3 159.57, 69.61 93.69 M245.45 246.55 C203.82 209.61, 160.98 176.17, 69.61 93.69 M251.46 241.17 C201.8 199.69, 155.81 159.07, 75.61 88.31 M251.46 241.17 C193.55 189.58, 132.7 134.55, 75.61 88.31 M257.46 235.79 C217.68 206.53, 178.17 167.8, 82.37 83.59 M257.46 235.79 C200.77 189.46, 148.18 144.21, 82.37 83.59 M264.22 231.07 C215.73 189.43, 174.47 146.38, 88.37 78.2 M264.22 231.07 C203.03 173.91, 138.29 122.71, 88.37 78.2 M270.22 225.68 C230.68 188.98, 182.93 150.22, 94.37 72.82 M270.22 225.68 C227.99 190.44, 186.84 154.67, 94.37 72.82 M276.22 220.3 C236.26 185.95, 200.99 157.63, 101.13 68.1 M276.22 220.3 C235.94 189.15, 196.57 154.93, 101.13 68.1 M282.23 214.92 C221.78 159.6, 155.57 102.06, 107.13 62.72 M282.23 214.92 C214.05 154.51, 146.5 96.11, 107.13 62.72 M288.98 210.2 C234.28 163.82, 185.06 124.05, 113.14 57.33 M288.98 210.2 C226.32 156.95, 162.25 99.09, 113.14 57.33 M294.99 204.81 C241.66 163.71, 192.61 118.07, 119.89 52.61 M294.99 204.81 C251.1 166.23, 212.45 132.02, 119.89 52.61 M300.99 199.43 C262.92 168.83, 228.34 137.18, 125.9 47.23 M300.99 199.43 C250.43 152.38, 199.05 107.28, 125.9 47.23 M307.75 194.71 C264.15 159.08, 223.06 122.21, 132.66 42.5 M307.75 194.71 C242.2 139.93, 177.35 83.51, 132.66 42.5 M313.75 189.33 C260.36 146.01, 218.69 106.73, 138.66 37.12 M313.75 189.33 C249.55 135.66, 190.88 82.1, 138.66 37.12 M319.75 183.94 C275.37 146.07, 232.81 103.47, 144.66 31.74 M319.75 183.94 C271.72 143.53, 227.16 102.44, 144.66 31.74 M326.51 179.22 C267.84 131.19, 216.1 81.17, 151.42 27.01 M326.51 179.22 C272.98 130.75, 218.93 82.75, 151.42 27.01 M332.52 173.84 C268.7 118.58, 207.21 68.77, 157.42 21.63 M332.52 173.84 C278.78 126.25, 223.23 79.72, 157.42 21.63 M337.76 167.8 C293.84 130.12, 255.53 97.29, 163.43 16.25 M337.76 167.8 C298.62 133.82, 258.41 98.88, 163.43 16.25 M343.77 162.42 C305.61 131.54, 266.4 98.91, 170.94 12.18 M343.77 162.42 C283.07 105.63, 222.11 51.11, 170.94 12.18 M347.51 155.07 C281.79 97.5, 215.73 44.52, 179.96 9.42 M347.51 155.07 C314.46 123.38, 278.62 93.79, 179.96 9.42 M346.72 143.78 C304.01 104.74, 262.43 71.39, 208.61 23.72 M346.72 143.78 C317.03 114.57, 284.09 85.7, 208.61 23.72" stroke="#a5d8ff" stroke-width="1" fill="none"></path><path d="M226.25 37.75 C249.79 56.66, 269.75 78.62, 314.75 113.25 M226.25 37.75 C257.99 66.49, 292.46 96.2, 314.75 113.25 M314.75 113.25 C361.48 148.25, 361.42 154.54, 314.75 188.75 M314.75 113.25 C360.51 150.8, 363.63 147.38, 314.75 188.75 M314.75 188.75 C287.51 214, 252.11 236.37, 226.25 262.25 M314.75 188.75 C287.27 213.71, 259.61 235.56, 226.25 262.25 M226.25 262.25 C181.26 296.97, 183.7 301.61, 135.75 262.25 M226.25 262.25 C180.44 304.58, 177.05 300.46, 135.75 262.25 M135.75 262.25 C106.72 235.99, 71.33 207.84, 45.25 188.75 M135.75 262.25 C104.71 239.33, 75.17 214.44, 45.25 188.75 M45.25 188.75 C2.25 148.82, 1.98 151.1, 45.25 113.25 M45.25 188.75 C-1.2 152.4, -2.95 155.49, 45.25 113.25 M45.25 113.25 C67.94 92.95, 101.34 67.05, 135.75 37.75 M45.25 113.25 C75.87 89.07, 106.39 65, 135.75 37.75 M135.75 37.75 C178.16 -1.31, 179.34 -3.13, 226.25 37.75 M135.75 37.75 C185.12 -2.34, 181.79 -4.6, 226.25 37.75" stroke="#1971c2" stroke-width="2" fill="none"></path></g><g stroke-linecap="round" transform="translate(29.208550008720067 37.48005364150879) rotate(345.96375653207355 60 60)"><path d="M10 51.09 C10 51.09, 10 51.09, 10 51.09 M10 51.09 C10 51.09, 10 51.09, 10 51.09 M7.51 66.15 C26.62 43.58, 49.7 21.55, 60.65 5.02 M7.51 66.15 C19.19 49.23, 35.11 32.53, 60.65 5.02 M12.24 72.91 C34.67 48.04, 53.37 24.31, 68.66 8.01 M12.24 72.91 C25.03 57.74, 41.78 40.52, 68.66 8.01 M17.62 78.92 C30.75 62.03, 49.71 42.94, 74.69 13.26 M17.62 78.92 C35.52 58.34, 53.18 35.47, 74.69 13.26 M23.66 84.16 C47.07 56.26, 65.13 36.95, 80.08 19.26 M23.66 84.16 C41.69 64.28, 57.77 45.55, 80.08 19.26 M29.69 89.41 C40.85 78.56, 50.41 60.58, 85.46 25.26 M29.69 89.41 C51.73 67.2, 70.45 43.24, 85.46 25.26 M35.07 95.42 C51.72 73, 70.54 50.48, 90.84 31.27 M35.07 95.42 C55.69 71.49, 76.11 47.88, 90.84 31.27 M41.11 100.66 C59.78 71.4, 85.79 52.71, 96.88 36.51 M41.11 100.66 C52.25 87.86, 64.88 74.86, 96.88 36.51 M47.15 105.91 C66.44 80.07, 91.74 58.1, 102.26 42.52 M47.15 105.91 C64.89 85.58, 83.28 65.67, 102.26 42.52 M53.19 111.16 C67.62 97.58, 82.27 79.04, 107.64 48.52 M53.19 111.16 C75.69 85.43, 95.47 62.79, 107.64 48.52 M59.88 115.65 C80.98 97.66, 97.08 70.93, 113.02 54.52 M59.88 115.65 C70.87 99.67, 85.67 86.41, 113.02 54.52 M101.35 80.15 C103.44 78.62, 104.79 75.22, 107.91 72.6 M101.35 80.15 C104.1 77.26, 106.46 75.72, 107.91 72.6 M55.02 113.52 C55.02 113.52, 55.02 113.52, 55.02 113.52 M55.02 113.52 C55.02 113.52, 55.02 113.52, 55.02 113.52 M66.31 112.73 C40.49 91.6, 22.5 68.88, 5.18 59.59 M66.31 112.73 C42.98 93.79, 20.85 74.23, 5.18 59.59 M73.07 108 C59.57 99.06, 45.22 78.81, 9.67 52.89 M73.07 108 C51.67 86.96, 30.44 67.94, 9.67 52.89 M78.31 101.96 C59.13 78.85, 33.93 62.22, 14.92 46.86 M78.31 101.96 C65.45 91.73, 51.82 79.91, 14.92 46.86 M84.32 96.58 C60.63 74.64, 35.47 54.2, 20.17 40.82 M84.32 96.58 C69.9 83.8, 56.66 72.9, 20.17 40.82 M90.32 91.2 C69.83 67.79, 42.07 46.43, 26.17 35.44 M90.32 91.2 C67.79 68.18, 44.94 50.29, 26.17 35.44 M95.57 85.16 C73.71 62.98, 47.64 40.02, 32.17 30.06 M95.57 85.16 C75.86 68.08, 55.95 51.29, 32.17 30.06 M101.57 79.78 C81.85 67.38, 70.53 53.83, 37.42 24.02 M101.57 79.78 C79.27 62.85, 59.77 41.26, 37.42 24.02 M106.82 73.74 C95.54 59.17, 75.32 49.35, 43.43 18.64 M106.82 73.74 C82.93 52.84, 57.88 34.65, 43.43 18.64 M111.32 67.05 C92.42 45.22, 70.63 24.57, 49.43 13.25 M111.32 67.05 C96.49 55.08, 85.76 45.41, 49.43 13.25 M116.56 61.01 C89.71 38.11, 67.87 23.22, 54.68 7.22 M116.56 61.01 C102.55 47.5, 87.34 35.64, 54.68 7.22 M80.3 18.89 C76.07 17.05, 72.39 12.07, 62.94 3.8 M80.3 18.89 C74.47 15.98, 70.4 9.4, 62.94 3.8" stroke="#ffc9c9" stroke-width="1" fill="none"></path><path d="M76.25 15.25 C82.86 27.42, 99.11 36.68, 104.75 45.75 M76.25 15.25 C81.91 21.91, 86.33 26.26, 104.75 45.75 M104.75 45.75 C121.49 61.76, 116.62 62.27, 104.75 76.25 M104.75 45.75 C120.51 63.78, 122.45 62.98, 104.75 76.25 M104.75 76.25 C96.56 84.83, 85.43 91.99, 76.25 104.75 M104.75 76.25 C94.89 88.35, 82.63 96.97, 76.25 104.75 M76.25 104.75 C59.82 118.77, 61.39 116.84, 45.75 104.75 M76.25 104.75 C59.42 121.23, 63.39 122.74, 45.75 104.75 M45.75 104.75 C37.23 94.18, 23.14 84.27, 15.25 76.25 M45.75 104.75 C37.53 99.76, 32.88 91.05, 15.25 76.25 M15.25 76.25 C-1.09 58.31, 2.11 57.68, 15.25 45.75 M15.25 76.25 C1.03 65.24, 0.41 65.08, 15.25 45.75 M15.25 45.75 C26.05 36.11, 37.94 22.83, 45.75 15.25 M15.25 45.75 C25.14 35.98, 35.2 27.48, 45.75 15.25 M45.75 15.25 C62.46 0.26, 64.95 -3.52, 76.25 15.25 M45.75 15.25 C56.75 3.92, 62.42 -2.93, 76.25 15.25" stroke="#e03131" stroke-width="2" fill="none"></path></g><g stroke-linecap="round" transform="translate(457 80.27150363278889) rotate(0 20 345)"><path d="M10 0 C17.91 2.04, 28.68 3.56, 30 0 C31.27 -2.05, 44.79 3.56, 40 10 C47.33 192.06, 47.42 379.71, 40 680 C42.83 685.43, 33.98 690.34, 30 690 C23.56 694.36, 16.9 687.75, 10 690 C0.96 688.38, -0.38 690.18, 0 680 C-4.77 507.99, -3.59 330.91, 0 10 C-4.79 8.31, 5.05 2.17, 10 0" stroke="none" stroke-width="0" fill="#343a40"></path><path d="M10 0 C12.81 0.08, 23.62 -1.35, 30 0 M10 0 C17.07 1.18, 24.46 0.92, 30 0 M30 0 C40.13 0.11, 42.75 1.8, 40 10 M30 0 C35.58 -4.59, 40.4 6.7, 40 10 M40 10 C37.93 156.4, 36.01 303.05, 40 680 M40 10 C38.86 213.46, 38.56 416.8, 40 680 M40 680 C39.55 687.16, 35.15 693.51, 30 690 M40 680 C42.97 682.47, 37.09 693.29, 30 690 M30 690 C24.87 693.86, 17.59 692.76, 10 690 M30 690 C27.17 691.52, 22.81 690.24, 10 690 M10 690 C3.74 688.62, -0.26 689.37, 0 680 M10 690 C1.91 688.81, 3.92 689, 0 680 M0 680 C3.52 429.26, 2.55 176.87, 0 10 M0 680 C5.96 504.16, 5.6 326.85, 0 10 M0 10 C-3.92 4.25, 1.89 -2.79, 10 0 M0 10 C-0.92 3.49, 1.31 -4.37, 10 0" stroke="#1e1e1e" stroke-width="2" fill="none"></path></g><g stroke-linecap="round" transform="translate(67 732.2715036327888) rotate(0 210 20)"><path d="M10 0 C137.05 4.18, 262.41 2.56, 410 0 C417.35 -4.34, 422.55 3.66, 420 10 C416.13 11.71, 417.79 22.83, 420 30 C424.47 39.52, 415.12 42.07, 410 40 C317.54 44.73, 227.25 44.83, 10 40 C3.47 39.41, -0.65 38.83, 0 30 C0.64 22.29, -0.88 16.04, 0 10 C-1.38 2.58, 8.22 -1.18, 10 0" stroke="none" stroke-width="0" fill="#343a40"></path><path d="M10 0 C119.94 -0.95, 227.73 -2.78, 410 0 M10 0 C147.56 1.11, 284.45 3.1, 410 0 M410 0 C418.33 -0.79, 420.34 4.1, 420 10 M410 0 C413.38 2.63, 419.68 1.96, 420 10 M420 10 C416.31 17.43, 418.79 23.96, 420 30 M420 10 C418.27 17.76, 419.59 23.87, 420 30 M420 30 C416.74 36, 415.67 37.57, 410 40 M420 30 C418.68 34.12, 415.9 35.88, 410 40 M410 40 C283.95 37.44, 156.89 38.92, 10 40 M410 40 C297.15 37.48, 182.99 38.54, 10 40 M10 40 C6.96 37.7, 3.16 34.5, 0 30 M10 40 C6.44 37.63, 2.1 32.91, 0 30 M0 30 C-0.7 29.44, 1.94 18.91, 0 10 M0 30 C-0.58 25.29, -0.37 22.13, 0 10 M0 10 C-2.49 2.01, 1.81 -2.23, 10 0 M0 10 C-3.2 -0.79, 6.75 0.57, 10 0" stroke="#1e1e1e" stroke-width="2" fill="none"></path></g><g stroke-linecap="round"><g transform="translate(51 359.2715036327889) rotate(0 262.27228769659996 2.28347530927509)"><path d="M-2.58 -1.58 C85.63 -0.31, 439.52 5.05, 527.12 6.15 M1.22 3.73 C89.43 4.25, 438.03 0.87, 525.95 1.58" stroke="#1e1e1e" stroke-width="2" fill="none"></path></g></g><mask></mask><g stroke-linecap="round" transform="translate(71 59.27150363278889) rotate(0 50 330)"><path d="M25 0 C43.71 -1.84, 55.3 1.49, 75 0 C95.7 -3.4, 105.12 10.56, 100 25 C105.34 188.97, 106.41 349.56, 100 635 C100.15 653.93, 86.66 664.22, 75 660 C63.34 661.46, 47.15 662.68, 25 660 C5.81 662.75, 3.03 646.14, 0 635 C-5.17 456.36, -2.21 282.96, 0 25 C1.24 8.23, 12.11 -1.15, 25 0" stroke="none" stroke-width="0" fill="#f783ac"></path><path d="M25 0 C43.88 -0.92, 63.25 -1.17, 75 0 M25 0 C41.6 0.8, 59.56 0.31, 75 0 M75 0 C93.01 -3.62, 100.01 5.44, 100 25 M75 0 C89.85 -3.33, 102.51 11.62, 100 25 M100 25 C93.82 242.78, 94.48 456.05, 100 635 M100 25 C104.17 231.08, 104.23 438.61, 100 635 M100 635 C100.19 655.35, 90.6 656.14, 75 660 M100 635 C104.18 651.41, 90.31 662.7, 75 660 M75 660 C62.7 662.69, 50.9 656.97, 25 660 M75 660 C61.35 661.03, 45.85 657.7, 25 660 M25 660 C9.68 658.09, -1.87 655.62, 0 635 M25 660 C12.42 655.95, -2.36 649.18, 0 635 M0 635 C-1.86 510.48, 1.31 387.05, 0 25 M0 635 C4.97 404.65, 3.6 175.36, 0 25 M0 25 C-3.23 5.3, 11.21 3.24, 25 0 M0 25 C-1.83 12.54, 4.15 -0.15, 25 0" stroke="#e03131" stroke-width="2" fill="none"></path></g><g stroke-linecap="round" transform="translate(171 59.27150363278889) rotate(0 50 330)"><path d="M25 0 C30.24 1.41, 48.48 -0.15, 75 0 C86.18 4.44, 98.94 10.11, 100 25 C97.2 170.59, 99.31 320.52, 100 635 C97.98 655.92, 87.91 661.24, 75 660 C61.7 660.03, 58.55 659.44, 25 660 C11.32 662.31, -1.25 651.83, 0 635 C-5.63 474.51, -6.52 313.81, 0 25 C-1.67 10.27, 11.39 0.74, 25 0" stroke="none" stroke-width="0" fill="#96f2d7"></path><path d="M25 0 C40.81 -4.1, 59.8 3.06, 75 0 M25 0 C36.46 -2.49, 49.12 -1.8, 75 0 M75 0 C89.8 3.95, 103.55 4.81, 100 25 M75 0 C89.3 -2.49, 95.56 8.58, 100 25 M100 25 C96.71 198.7, 96.37 370.25, 100 635 M100 25 C103.13 195.99, 103.22 365.38, 100 635 M100 635 C102.88 654.91, 90.07 663.66, 75 660 M100 635 C95.81 651.52, 90.36 663.44, 75 660 M75 660 C60.93 661.06, 45.25 657.31, 25 660 M75 660 C57.27 659.86, 35.03 660.31, 25 660 M25 660 C8.59 656.47, 0.11 653.29, 0 635 M25 660 C4.22 663.46, -0.56 651.41, 0 635 M0 635 C-2.12 463.52, -3.1 291.16, 0 25 M0 635 C5.33 418.76, 4.52 202.28, 0 25 M0 25 C3.82 11.54, 9.22 -0.07, 25 0 M0 25 C3.1 7.39, 4.42 1.41, 25 0" stroke="#099268" stroke-width="2" fill="none"></path></g><g stroke-linecap="round" transform="translate(271 59.27150363278889) rotate(0 50 330)"><path d="M25 0 C33.35 -0.68, 52.88 3.02, 75 0 C92.23 -4.61, 102.16 9.36, 100 25 C106.67 152.44, 103.87 280.22, 100 635 C97.4 657.14, 92.05 660.09, 75 660 C56.09 656.82, 44.48 665.95, 25 660 C7.89 658.35, -2.93 651.19, 0 635 C2.34 426.07, 1.28 219.78, 0 25 C0.46 10.3, 5.97 -3.38, 25 0" stroke="none" stroke-width="0" fill="#ffec99"></path><path d="M25 0 C40.12 4.19, 64.57 1.26, 75 0 M25 0 C38.21 0.82, 52.91 -1.47, 75 0 M75 0 C92.84 -3.56, 101.3 10.5, 100 25 M75 0 C91.88 -4.5, 103.65 7.46, 100 25 M100 25 C97.25 226.65, 96.12 430.56, 100 635 M100 25 C97.7 250.26, 97.51 474.47, 100 635 M100 635 C102.53 649.62, 91.06 663.15, 75 660 M100 635 C98.81 654.12, 93.57 658.97, 75 660 M75 660 C63.33 660.31, 46.03 658.73, 25 660 M75 660 C58.22 660.61, 41.08 661.7, 25 660 M25 660 C10.41 662.08, 3.71 653.81, 0 635 M25 660 C5.89 657.48, 1 653.43, 0 635 M0 635 C-0.36 453.54, -2.68 270.77, 0 25 M0 635 C-2.52 450.74, -3.31 267.08, 0 25 M0 25 C2.29 7.92, 5.53 -1.86, 25 0 M0 25 C2.2 6.84, 10.1 3.58, 25 0" stroke="#f08c00" stroke-width="2" fill="none"></path></g><g stroke-linecap="round" transform="translate(371 59.27150363278889) rotate(0 50 330)"><path d="M25 0 C37.89 2.51, 49.01 -4.21, 75 0 C93.82 1.03, 94.88 11.98, 100 25 C106.19 158.53, 105.73 292.57, 100 635 C100.39 651.76, 92.06 661.11, 75 660 C58.84 664.69, 41.86 657.46, 25 660 C5.41 659.52, 2.34 651.05, 0 635 C-4.32 499.24, -4.67 360.55, 0 25 C-2.37 4.96, 12.5 2.39, 25 0" stroke="none" stroke-width="0" fill="#a5d8ff"></path><path d="M25 0 C41.36 -0.07, 51.23 1.75, 75 0 M25 0 C37.06 -1.98, 53.53 -2.09, 75 0 M75 0 C92.97 2.17, 100.18 4.42, 100 25 M75 0 C95.32 -0.87, 101.46 5.62, 100 25 M100 25 C99.39 193.04, 101.49 358.98, 100 635 M100 25 C96 253.68, 97.23 483.34, 100 635 M100 635 C99.39 654.82, 90.63 662.14, 75 660 M100 635 C101.9 650.64, 91.8 658.36, 75 660 M75 660 C57.39 657.82, 39.43 658.69, 25 660 M75 660 C60.08 661.48, 42.57 661.17, 25 660 M25 660 C12.05 662.15, -2.13 649.47, 0 635 M25 660 C9.34 661.76, -0.1 653.37, 0 635 M0 635 C-5.28 497.57, -4.38 362.77, 0 25 M0 635 C-2.48 414.29, -1.55 192.65, 0 25 M0 25 C-2.8 6.48, 10.24 -1.3, 25 0 M0 25 C1.76 11.92, 6.83 0.37, 25 0" stroke="#1971c2" stroke-width="2" fill="none"></path></g><g stroke-linecap="round"><g transform="translate(11.965456053242065 564.872722078686) rotate(0 268.5300831547007 -2.965182247348139)"><path d="M-0.97 -0.33 C88.75 -0.96, 447.95 -0.62, 538.03 -1.43 M3.71 -2.98 C92.97 -3.19, 446.2 -5.55, 535.24 -5.6" stroke="#1e1e1e" stroke-width="2" fill="none"></path></g></g><mask></mask><g stroke-linecap="round"><g transform="translate(11.761249670758843 567.2924975979636) rotate(0 19.938796571828448 -103.96475970602576)"><path d="M-1.76 1.92 C5.32 -32.71, 34.48 -170.51, 41.64 -205.96 M2.48 0.49 C9.48 -35.07, 34.38 -174.9, 40.7 -209.85" stroke="#1e1e1e" stroke-width="2" fill="none"></path></g></g><mask></mask><g stroke-linecap="round"><g transform="translate(552.0241246555001 560.2819537899395) rotate(0 10.596646307930314 -100.37107297871262)"><path d="M-1.02 1.28 C1.69 -32.61, 13.5 -168.4, 16.93 -202.02 M3.62 -0.5 C7.15 -34.11, 19.81 -166.18, 22.22 -198.94" stroke="#1e1e1e" stroke-width="2" fill="none"></path></g></g><mask></mask><g stroke-linecap="round" transform="translate(65 639.2715036327888) rotate(0 40 60)"><path d="M20 0 C27.61 0.04, 35.17 -3.12, 60 0 C74.6 0.05, 77.78 4.08, 80 20 C79.03 48.03, 78.5 80.04, 80 100 C81.03 111.68, 76.41 119.72, 60 120 C53.54 118.56, 41.25 116.94, 20 120 C5.65 122.85, 1.05 114.69, 0 100 C-2.7 72.95, 2.41 50.12, 0 20 C-2.74 7.78, 3.6 -2.51, 20 0" stroke="none" stroke-width="0" fill="#f8f9fa"></path><path d="M20 0 C33.15 1.86, 45.41 2.23, 60 0 M20 0 C36.17 0.11, 51.39 0.13, 60 0 M60 0 C75.12 -0.84, 81.46 6.8, 80 20 M60 0 C72.15 -2.09, 78.26 8.78, 80 20 M80 20 C80.98 51.19, 78.87 81.16, 80 100 M80 20 C80.54 39.65, 79.5 57.89, 80 100 M80 100 C79.96 112.94, 72.8 118.62, 60 120 M80 100 C80.03 114.98, 72.8 118.78, 60 120 M60 120 C50.57 120.01, 41.7 120.85, 20 120 M60 120 C45.26 119.91, 32.74 120.47, 20 120 M20 120 C7.37 118.01, -1.94 113.83, 0 100 M20 120 C7.46 120.6, 0.7 115.58, 0 100 M0 100 C0.48 76.6, 1.28 53.6, 0 20 M0 100 C0.01 81.61, -1.08 63.19, 0 20 M0 20 C0.67 6.91, 5.48 0.04, 20 0 M0 20 C-2.03 7.1, 6.15 -1.61, 20 0" stroke="#ffffff" stroke-width="1" fill="none"></path></g><g stroke-linecap="round" transform="translate(185 639.2715036327888) rotate(0 40 60)"><path d="M20 0 C28.1 -2.06, 38.71 -1.55, 60 0 C74.17 1.78, 78.55 9.85, 80 20 C78.55 44.63, 82.3 70.88, 80 100 C79.18 113.14, 76.05 117.38, 60 120 C52.19 119.85, 41.32 120.12, 20 120 C5.97 121.62, -0.27 113.13, 0 100 C0.04 81.42, -1.45 58.2, 0 20 C-1.88 3.15, 9.37 -2.8, 20 0" stroke="none" stroke-width="0" fill="#f8f9fa"></path><path d="M20 0 C30.62 0.87, 43.67 0.7, 60 0 M20 0 C32.93 0.02, 44.59 -0.09, 60 0 M60 0 C71.57 0.37, 79.55 5.26, 80 20 M60 0 C71.79 0.04, 80.86 5.57, 80 20 M80 20 C79.93 44.72, 78 67.95, 80 100 M80 20 C79.83 49.02, 79.69 79.15, 80 100 M80 100 C80.57 112.41, 75.04 119.85, 60 120 M80 100 C78.42 111.11, 71.2 121.78, 60 120 M60 120 C48.29 121.32, 38.3 120.49, 20 120 M60 120 C46.21 119.59, 34.41 120.59, 20 120 M20 120 C5.15 120.62, -1.7 111.94, 0 100 M20 120 C4.57 118.87, 1.15 112.96, 0 100 M0 100 C1.39 79.05, -0.41 54.04, 0 20 M0 100 C-0.6 74.3, 0.04 47.32, 0 20 M0 20 C-0.02 8.2, 5.35 -1.59, 20 0 M0 20 C0.96 8.51, 8.79 1.72, 20 0" stroke="#ffffff" stroke-width="1" fill="none"></path></g><g stroke-linecap="round" transform="translate(134 614.2715036327888) rotate(0 30 60)"><path d="M15 0 C22.8 -2.51, 29.97 3.43, 45 0 C55.39 3.02, 60.66 4.3, 60 15 C57.87 45.1, 60.67 76.75, 60 105 C60.95 113.18, 52.27 118.12, 45 120 C35.6 118.53, 29.47 120.1, 15 120 C1.87 121.91, -1.84 117.59, 0 105 C-3.74 87.7, 0.81 69.28, 0 15 C-2.38 3.62, 7.01 -0.42, 15 0" stroke="none" stroke-width="0" fill="#343a40"></path><path d="M15 0 C24.23 -1.79, 31.53 0.85, 45 0 M15 0 C24.72 0.47, 34.03 -0.16, 45 0 M45 0 C54.24 -1.04, 60.69 5.57, 60 15 M45 0 C53.94 1.96, 59.82 3.42, 60 15 M60 15 C58.73 33.18, 57.84 51.06, 60 105 M60 15 C60.57 49.57, 59.68 82.69, 60 105 M60 105 C59.66 116.69, 56.66 118.48, 45 120 M60 105 C60.71 113.04, 53.4 117.9, 45 120 M45 120 C36.98 119.79, 28.08 121.28, 15 120 M45 120 C34.64 119.97, 23.79 119.32, 15 120 M15 120 C5.61 120.49, -1.31 114.98, 0 105 M15 120 C6.76 118.49, -1.83 115.96, 0 105 M0 105 C-2.56 70.43, -1.12 36.36, 0 15 M0 105 C-0.18 83.9, -0.82 62.7, 0 15 M0 15 C0.34 6.42, 3.69 -1.37, 15 0 M0 15 C-0.47 5.82, 5.1 -0.53, 15 0" stroke="#868e96" stroke-width="1" fill="none"></path></g><g stroke-linecap="round" transform="translate(285 644.2715036327888) rotate(0 40 60)"><path d="M20 0 C31.78 -1.83, 37.34 -0.91, 60 0 C70.22 -0.52, 82.32 7.34, 80 20 C79.73 42.13, 80.55 60.91, 80 100 C78.14 112.94, 73.03 119.77, 60 120 C43.8 122.12, 25.41 123.11, 20 120 C10.26 120.91, 0.94 113.05, 0 100 C3.27 78.05, 1.38 61.3, 0 20 C-2.29 5.36, 7.6 -2.91, 20 0" stroke="none" stroke-width="0" fill="#f8f9fa"></path><path d="M20 0 C30.72 -0.39, 40.63 1.67, 60 0 M20 0 C30.96 0.52, 42.55 -0.77, 60 0 M60 0 C74.02 -0.04, 79.79 7.91, 80 20 M60 0 C73.12 -1.58, 77.98 7.02, 80 20 M80 20 C80.68 42.67, 78.81 67.77, 80 100 M80 20 C79.34 43.66, 79.52 67.09, 80 100 M80 100 C78.78 115.19, 75.16 119.11, 60 120 M80 100 C81.67 115.33, 72.02 118.05, 60 120 M60 120 C47.87 121.73, 35.24 120.92, 20 120 M60 120 C47.15 120.01, 31.9 119.14, 20 120 M20 120 C5.4 121.77, -1.45 111.93, 0 100 M20 120 C8.51 118.97, 1.41 111.99, 0 100 M0 100 C0.7 79.47, -0.61 62.8, 0 20 M0 100 C1.26 81.1, -0.16 61.6, 0 20 M0 20 C-1.86 6.3, 5.15 -1.93, 20 0 M0 20 C-1.72 8.66, 4.5 1.93, 20 0" stroke="#ffffff" stroke-width="1" fill="none"></path></g><g stroke-linecap="round" transform="translate(405 644.2715036327888) rotate(0 40 60)"><path d="M20 0 C31.73 -0.45, 42.14 -0.18, 60 0 C75.65 0.67, 78.81 9.09, 80 20 C79.09 48.38, 77.64 79.95, 80 100 C79.7 113.11, 76.83 120.11, 60 120 C42.34 122.92, 33.91 121.23, 20 120 C7.61 119.72, -1.81 112.39, 0 100 C-0.15 83.57, -3.44 63.31, 0 20 C0.93 3.76, 7.13 2.01, 20 0" stroke="none" stroke-width="0" fill="#f8f9fa"></path><path d="M20 0 C33.31 1.76, 43.97 -1.8, 60 0 M20 0 C30.98 -1, 43.84 -0.22, 60 0 M60 0 C73.12 1.25, 79.82 5.3, 80 20 M60 0 C71.31 0.35, 79.91 5.95, 80 20 M80 20 C79.43 48.48, 80.33 75.17, 80 100 M80 20 C79.75 39.34, 79.2 60.7, 80 100 M80 100 C81.82 112.44, 74.79 121.73, 60 120 M80 100 C78.68 111.39, 73.22 117.71, 60 120 M60 120 C44.66 121, 32.48 118.99, 20 120 M60 120 C47.59 119.16, 35.67 120.9, 20 120 M20 120 C5.22 118.6, 1.61 112.44, 0 100 M20 120 C8.08 118.66, -1.44 112.87, 0 100 M0 100 C-0.99 79.01, -1.52 55.57, 0 20 M0 100 C-1.24 73.21, -1.64 47.94, 0 20 M0 20 C-1.52 4.74, 5.17 1.74, 20 0 M0 20 C-2.16 8.6, 5.01 -1.25, 20 0" stroke="#ffffff" stroke-width="1" fill="none"></path></g><g stroke-linecap="round" transform="translate(354 619.2715036327888) rotate(0 30 60)"><path d="M15 0 C19.45 -0.4, 32.45 0.79, 45 0 C53.81 2.42, 62.78 3.76, 60 15 C57.95 43.56, 59.51 72.68, 60 105 C63.5 115.11, 57.56 119.68, 45 120 C38.24 121.3, 25.25 120.11, 15 120 C3.19 119.06, -2.84 117.89, 0 105 C-2.74 81.61, 0.48 57.93, 0 15 C0.46 7.01, 5.29 -1.85, 15 0" stroke="none" stroke-width="0" fill="#343a40"></path><path d="M15 0 C23.25 -2.13, 31.73 -1.64, 45 0 M15 0 C25.83 0.22, 35.88 0.86, 45 0 M45 0 C54.82 -1.37, 58.24 5.3, 60 15 M45 0 C54.91 -0.71, 61.18 6.07, 60 15 M60 15 C59.53 36.32, 58.55 59.27, 60 105 M60 15 C59.34 41.46, 60.86 65.62, 60 105 M60 105 C61.45 116.73, 53.86 118.31, 45 120 M60 105 C59.89 112.71, 56.27 119.63, 45 120 M45 120 C34.62 118.79, 22.39 121.95, 15 120 M45 120 C35.29 120.63, 26.12 119.05, 15 120 M15 120 C6.61 119.11, 1.23 113.84, 0 105 M15 120 C3.56 119.53, -0.65 115.62, 0 105 M0 105 C-0.96 84.03, 0.83 66.72, 0 15 M0 105 C-0.45 78.94, -0.28 52.28, 0 15 M0 15 C-1.5 6.74, 3.12 1.68, 15 0 M0 15 C-1.65 3.75, 5.36 1.7, 15 0" stroke="#868e96" stroke-width="1" fill="none"></path></g><g stroke-linecap="round" transform="translate(245 619.2715036327888) rotate(0 30 60)"><path d="M15 0 C21.39 -2.55, 30.87 -1.41, 45 0 C57.69 1.97, 57.33 4.89, 60 15 C56.5 50.09, 57.62 83.89, 60 105 C57.62 113.81, 51.64 120.85, 45 120 C35.42 123.66, 24.28 122.49, 15 120 C5.06 117.77, -2.48 117.03, 0 105 C-1.69 73.95, -1.48 42.43, 0 15 C1.22 4.03, 5.85 -3.33, 15 0" stroke="none" stroke-width="0" fill="#343a40"></path><path d="M15 0 C22.15 0.22, 28.14 -1.3, 45 0 M15 0 C22.67 0.04, 31.78 -0.88, 45 0 M45 0 C54.28 0.52, 58.38 5.26, 60 15 M45 0 C56.29 0.18, 58.82 2.99, 60 15 M60 15 C61.08 35.76, 61.12 60.48, 60 105 M60 15 C58.97 37.62, 60.33 61.36, 60 105 M60 105 C60.82 113.47, 53.8 119.97, 45 120 M60 105 C60.99 117.27, 56.23 120.41, 45 120 M45 120 C36.94 121.14, 30.95 119.67, 15 120 M45 120 C34.23 120.44, 24.13 119.75, 15 120 M15 120 C5.27 118.47, -1.97 113.96, 0 105 M15 120 C4.36 118.45, 1.95 114.66, 0 105 M0 105 C-1.18 81.79, 2.17 62.45, 0 15 M0 105 C0.98 79.08, 0.22 51.47, 0 15 M0 15 C-0.61 5.08, 5.98 0.81, 15 0 M0 15 C1.22 5.73, 3.33 -1.84, 15 0" stroke="#868e96" stroke-width="1" fill="none"></path></g></svg>