<?xml version="1.0" standalone="no"?>
<!DOCTYPE svg PUBLIC "-//W3C//DTD SVG 1.1//EN" "http://www.w3.org/Graphics/SVG/1.1/DTD/svg11.dtd">
<svg version="1.1" xmlns="http://www.w3.org/2000/svg" viewBox="0 0 260.07021787166605 281.62627475261684" width="780.2106536149981" height="844.8788242578505"><!-- svg-source:excalidraw --><metadata></metadata><defs><style class="style-fonts">
      </style></defs><g stroke-linecap="round"><g transform="translate(70.40076556131248 10.860026692599035) rotate(0 0.05540404245255104 130.5090710845636)"><path d="M-0.94 0.85 C-0.9 44.36, 0.7 217.54, 1.05 260.77 M0.76 0.25 C0.67 43.44, 0.62 215.48, 0.66 259.05" stroke="#ffd43b" stroke-width="2" fill="none"></path></g></g><mask></mask><g stroke-linecap="round"><g transform="translate(130.40076556131248 10.860026692599035) rotate(0 0.46624664026126084 129.5737453676807)"><path d="M0.95 -0.86 C0.99 42.26, 0.87 215.38, 0.85 259 M-0.01 1.3 C-0.1 44.52, 0.26 217.06, 0.35 260.01" stroke="#f783ac" stroke-width="2" fill="none"></path></g></g><mask></mask><g stroke-linecap="round"><g transform="translate(190.40076556131248 10.860026692599035) rotate(0 -0.24495884899647535 130.24612531310413)"><path d="M0.54 0.62 C0.43 44.21, 0.3 217.28, 0.05 260.59 M-0.63 -0.1 C-0.96 43.22, -1.21 215.69, -0.86 258.77" stroke="#4dabf7" stroke-width="2" fill="none"></path></g></g><mask></mask><g stroke-linecap="round"><g transform="translate(10.400765561312483 230.86002669259904) rotate(0 119.63434337452054 0.18903148099779798)"><path d="M-0.4 1.05 C39.64 0.93, 199.57 -0.57, 239.67 -0.67 M1.59 0.55 C41.49 0.57, 198.89 0.89, 238.55 0.52" stroke="#da77f2" stroke-width="2" fill="none"></path></g></g><mask></mask><g stroke-linecap="round" transform="translate(90.40076556131248 241.86002669259904) rotate(0 10 10)"><path d="M8.55 0.36 C10.49 0, 13.74 0.71, 15.5 1.86 C17.26 3.02, 18.57 5.28, 19.12 7.28 C19.67 9.27, 19.5 11.8, 18.8 13.82 C18.1 15.84, 16.79 18.41, 14.93 19.38 C13.08 20.35, 9.87 20.23, 7.68 19.64 C5.48 19.05, 3.07 17.52, 1.77 15.86 C0.48 14.2, -0.18 11.83, -0.09 9.68 C0 7.53, 0.68 4.59, 2.31 2.97 C3.93 1.36, 8.32 0.42, 9.65 0.02 C10.99 -0.38, 10.32 0.33, 10.31 0.57 M12.46 0.88 C14.39 1.25, 16.59 2.12, 17.96 3.63 C19.33 5.13, 20.7 7.77, 20.7 9.9 C20.69 12.03, 19.41 14.79, 17.93 16.39 C16.44 17.99, 14.16 19.23, 11.81 19.49 C9.47 19.76, 5.74 19, 3.84 18 C1.94 16.99, 0.98 15.35, 0.42 13.46 C-0.14 11.56, -0.46 8.79, 0.46 6.64 C1.38 4.5, 3.93 1.64, 5.93 0.6 C7.92 -0.44, 11.25 0.37, 12.44 0.39 C13.63 0.41, 13.03 0.52, 13.05 0.72" stroke="#f783ac" stroke-width="2" fill="none"></path></g><g stroke-linecap="round"><g transform="translate(29.83215052886851 270.52656413644604) rotate(46.7295876903274 10.036671363112418 -9.788064230156024)"><path d="M1.07 -1.14 C4.55 -4.42, 17.06 -17.36, 19.9 -20.45 M0.17 0.88 C3.63 -2.24, 15.9 -16.28, 19.27 -19.52" stroke="#ffd43b" stroke-width="2" fill="none"></path></g></g><mask></mask><g stroke-linecap="round"><g transform="translate(30.67995572754262 269.22518866463673) rotate(46.7295876903274 8.088545973311739 -10.10320068640592)"><path d="M-0.54 -0.55 C-0.38 -3.76, -1.88 -15.7, 1.04 -18.96 C3.95 -22.21, 14.38 -19.66, 16.96 -20.09 M1.38 1.78 C1.46 -1.83, -1.79 -17.49, 0.63 -20.9 C3.05 -24.3, 13.3 -18.62, 15.9 -18.64" stroke="#ffd43b" stroke-width="2" fill="none"></path></g></g><mask></mask><g stroke-linecap="round" transform="translate(150.40076556131248 241.86002669259904) rotate(0 10 10)"><path d="M5 0 C7.46 0.01, 8.28 -0.8, 15 0 M5 0 C7.01 -0.07, 10.48 -0.49, 15 0 M15 0 C17.22 -0.9, 18.97 -0.32, 20 5 M15 0 C17.95 -0.37, 20.58 2.6, 20 5 M20 5 C20.73 9.37, 20.66 11.98, 20 15 M20 5 C20.39 8.37, 20.32 11.06, 20 15 M20 15 C21.84 18.97, 17.84 19.42, 15 20 M20 15 C18.29 17.43, 16.19 21.24, 15 20 M15 20 C13.33 19.98, 9.59 20.4, 5 20 M15 20 C12.19 20.27, 9.2 19.56, 5 20 M5 20 C3.3 20.49, -1.91 18.67, 0 15 M5 20 C3.62 21.25, 1.24 18.9, 0 15 M0 15 C-0.62 12.31, -0.35 9.79, 0 5 M0 15 C0.42 11.55, -0.46 8.47, 0 5 M0 5 C-1.24 0.19, 2.08 -0.97, 5 0 M0 5 C2.28 -0.59, 0.56 -1.82, 5 0" stroke="#4dabf7" stroke-width="2" fill="none"></path></g><g stroke-linecap="round"><g transform="translate(210.40076556131248 242.86002669259904) rotate(0 10.227830690755525 10.121554897548634)"><path d="M-1.13 0.72 C1.92 3.92, 15.7 16, 19.26 19.12 M0.48 0.05 C3.83 3.39, 18.39 16.79, 21.58 20.19" stroke="#69db7c" stroke-width="2" fill="none"></path></g></g><mask></mask><g stroke-linecap="round"><g transform="translate(210.40076556131248 262.86002669259904) rotate(0 10.304946134309262 -9.656536065787073)"><path d="M1.15 0.63 C4.69 -2.54, 17.18 -16.52, 20.32 -19.94 M0.29 -0.09 C3.79 -2.97, 16.39 -15.29, 19.54 -18.37" stroke="#69db7c" stroke-width="2" fill="none"></path></g></g><mask></mask></svg>